<svg width="413" height="208" viewBox="0 0 413 208" fill="none" xmlns="http://www.w3.org/2000/svg">
<path d="M287.129 48.7085C287.168 49.0621 287.207 49.4157 287.247 49.78C287.62 53.1813 287.993 56.5825 288.366 59.9838C288.595 62.0694 288.823 64.155 289.052 66.2406C289.2 67.5922 289.349 68.9437 289.497 70.2953C289.608 71.3075 289.719 72.3198 289.829 73.332C290.191 76.6319 290.557 79.9312 290.932 83.2295C291.037 84.1524 291.141 85.0752 291.246 85.9981C291.343 86.8538 291.442 87.7093 291.541 88.5649C291.6 89.0845 291.658 89.6042 291.717 90.1239C291.794 90.7936 291.794 90.7936 291.872 91.4769C291.984 92.7789 292 94.0574 291.981 95.3635C289.61 93.8322 287.362 92.19 285.146 90.4414C284.565 89.9849 283.983 89.5286 283.401 89.0723C283.149 88.8735 282.897 88.6747 282.637 88.4699C282.395 88.2814 282.153 88.0929 281.904 87.8987C281.644 87.695 281.384 87.4913 281.116 87.2815C280.376 86.7542 279.806 86.5642 278.918 86.4057C278.769 86.8927 278.769 86.8927 278.616 87.3896C278.181 88.6176 277.661 89.6804 277.031 90.819C276.804 91.2301 276.577 91.6412 276.343 92.0648C276.097 92.5036 275.852 92.9422 275.606 93.3806C275.48 93.6046 275.355 93.8285 275.226 94.0592C272.985 98.0671 270.63 101.985 268.094 105.814C267.907 106.098 267.719 106.383 267.527 106.675C262.516 114.243 257.03 121.556 250.84 128.201C250.086 129.013 249.361 129.845 248.64 130.687C247.007 132.561 245.252 134.311 243.492 136.064C242.925 136.629 242.36 137.196 241.795 137.763C239.802 139.758 237.776 141.69 235.622 143.511C235.228 143.852 234.834 144.193 234.44 144.533C224.332 153.15 213.246 160.486 201.292 166.285C200.539 166.652 199.79 167.024 199.04 167.397C190.361 171.66 180.94 174.663 171.425 176.357C171.124 176.413 170.824 176.469 170.514 176.527C161.071 178.242 150.212 178.482 140.819 176.357C140.562 176.303 140.305 176.249 140.04 176.193C129.522 173.971 119.563 168.862 111.927 161.267C111.308 160.656 110.678 160.058 110.045 159.46C106.941 156.493 104.309 153.291 101.779 149.827C101.314 149.189 100.841 148.557 100.368 147.926C98.7552 145.759 97.4397 143.621 96.0305 141.272C95.9074 152.85 95.7842 164.428 95.6573 176.357C88.883 176.357 82.1087 176.357 75.1291 176.357C75.0962 163.455 75.0686 150.554 75.0529 137.652C75.051 136.13 75.0491 134.607 75.0471 133.084C75.0467 132.781 75.0463 132.478 75.0459 132.166C75.0394 127.256 75.0276 122.345 75.0139 117.435C75 112.398 74.9917 107.361 74.9886 102.323C74.9866 99.2143 74.9801 96.1053 74.968 92.9962C74.9601 90.8652 74.9577 88.7343 74.9597 86.6033C74.9606 85.3731 74.9583 84.1431 74.9511 82.913C74.9437 81.5798 74.9455 80.247 74.9496 78.9138C74.9452 78.5243 74.9409 78.1347 74.9364 77.7333C74.9502 76.0736 74.9596 75.1124 75.8401 73.6734C76.6237 72.9676 77.1719 72.6164 78.1667 72.2894C78.4669 72.1873 78.7672 72.0853 79.0765 71.9801C79.3977 71.8778 79.7188 71.7755 80.0497 71.67C80.3829 71.5585 80.716 71.4469 81.0592 71.3319C82.121 70.9777 83.1854 70.6319 84.2502 70.2864C85.3128 69.9351 86.375 69.582 87.4371 69.2289C88.0971 69.0102 88.7576 68.7929 89.4186 68.5771C90.62 68.1844 91.7971 67.7988 92.9587 67.2986C93.7911 66.9972 93.7911 66.9972 95.6573 66.9972C95.6573 88.4287 95.6573 109.86 95.6573 131.941C95.9036 131.941 96.15 131.941 96.4038 131.941C96.5286 131.649 96.5286 131.649 96.656 131.352C97.3357 130.109 98.2062 129.033 99.0864 127.929C99.3642 127.578 99.3642 127.578 99.6476 127.22C100.801 125.77 101.985 124.358 103.22 122.976C105.652 120.205 107.916 117.281 110.214 114.399C110.961 113.464 111.709 112.529 112.457 111.595C112.942 110.989 113.425 110.381 113.907 109.773C115.368 107.93 116.86 106.117 118.378 104.321C118.556 104.111 118.734 103.9 118.917 103.683C120.899 101.348 120.899 101.348 122.02 101.246C122.436 101.247 122.852 101.249 123.281 101.251C123.987 101.251 123.987 101.251 124.707 101.251C125.223 101.255 125.739 101.258 126.254 101.262C126.78 101.264 127.306 101.265 127.833 101.266C129.218 101.268 130.604 101.276 131.989 101.284C133.403 101.292 134.816 101.295 136.23 101.299C139.004 101.307 141.778 101.32 144.552 101.335C143.759 102.546 142.981 103.73 142.025 104.818C141.749 105.135 141.749 105.135 141.468 105.459C141.277 105.676 141.086 105.894 140.889 106.117C139.402 107.831 137.955 109.558 136.578 111.362C135.649 112.575 134.689 113.764 133.732 114.956C133.257 115.547 132.784 116.14 132.312 116.734C130.715 118.743 129.088 120.726 127.453 122.703C125.482 125.089 123.539 127.492 121.644 129.939C120.966 130.815 120.272 131.676 119.568 132.531C119.392 132.75 119.216 132.968 119.034 133.192C118.699 133.606 118.361 134.017 118.017 134.424C117.337 135.275 116.938 135.846 116.903 136.951C117.474 138.316 118.28 139.42 119.171 140.595C119.356 140.843 119.541 141.09 119.731 141.344C121.3 143.418 122.974 145.364 124.77 147.244C124.997 147.494 125.224 147.745 125.458 148.003C130.018 152.863 136.334 156.434 142.522 158.768C142.79 158.87 143.058 158.972 143.335 159.078C148.148 160.796 152.907 161.259 157.965 161.217C158.248 161.216 158.531 161.215 158.822 161.214C163.883 161.19 168.718 160.666 173.664 159.561C174.068 159.477 174.068 159.477 174.479 159.392C190.224 156.117 205.367 147.66 217.707 137.54C217.903 137.379 218.099 137.218 218.301 137.052C222.751 133.387 226.934 129.467 231.027 125.409C231.355 125.086 231.683 124.763 232.021 124.43C234.256 122.198 236.262 119.848 238.235 117.385C238.597 116.956 238.962 116.529 239.33 116.106C241.769 113.293 243.951 110.364 246.073 107.307C246.404 106.844 246.404 106.844 246.742 106.371C252.951 97.6703 258.816 88.1006 262.869 78.1944C262.632 78.1808 262.394 78.1671 262.15 78.153C259.24 77.9416 256.487 77.3636 253.654 76.6782C253.21 76.573 252.766 76.4679 252.308 76.3596C251.224 76.1028 250.141 75.8435 249.059 75.5818C249.059 75.2123 249.059 74.8427 249.059 74.462C249.545 73.9784 249.545 73.9784 250.24 73.4881C250.5 73.3017 250.761 73.1153 251.03 72.9232C251.319 72.7228 251.607 72.5224 251.905 72.3159C252.205 72.1037 252.504 71.8915 252.813 71.6729C255.48 69.7945 258.176 67.9593 260.876 66.1293C263.251 64.5194 265.607 62.886 267.954 61.2354C270.162 59.6834 272.381 58.1575 274.635 56.6734C276.96 55.1231 279.24 53.5023 281.528 51.898C281.887 51.6475 282.245 51.397 282.614 51.1389C283.096 50.801 283.096 50.801 283.588 50.4561C286.173 48.7085 286.173 48.7085 287.129 48.7085Z" fill="white"/>
<path d="M64.6786 106.561C64.1279 108.359 63.3958 109.993 62.566 111.674C62.4354 111.941 62.3048 112.209 62.1702 112.485C61.7558 113.333 61.3395 114.181 60.9229 115.029C60.5052 115.88 60.088 116.732 59.6715 117.585C59.4131 118.113 59.1539 118.642 58.8939 119.17C58.3977 120.184 57.9445 121.164 57.5871 122.237C56.3083 121.75 55.0925 121.182 53.8691 120.571C48.6138 117.981 43.1826 116.946 37.3388 116.918C36.9351 116.91 36.5315 116.903 36.1156 116.895C33.0723 116.88 30.0198 117.1 27.5413 119.041C26.1875 120.428 25.91 120.991 25.7217 122.937C25.77 124.56 26.283 125.475 27.3546 126.716C28.944 127.919 30.3184 128.503 32.2534 128.955C32.5092 129.016 32.7649 129.076 33.0284 129.139C35.1012 129.62 37.1875 130.036 39.275 130.448C40.225 130.636 41.1751 130.825 42.1249 131.014C42.7052 131.13 43.2857 131.244 43.8665 131.357C50.8223 132.732 59.104 135.417 63.5589 141.272C67.064 147.195 67.9722 153.418 66.3115 160.144C64.6971 166.046 61.15 170.299 55.9439 173.382C44.4692 179.832 29.1335 178.963 16.8387 175.653C12.427 174.38 7.49312 172.472 3.84052 169.638C3.53253 169.013 3.53253 169.013 3.46729 168.145C3.80877 167.247 4.16892 166.438 4.60304 165.586C4.7243 165.34 4.84555 165.093 4.97048 164.839C5.3595 164.049 5.7545 163.263 6.14995 162.477C6.53658 161.698 6.92196 160.919 7.30722 160.14C7.55542 159.638 7.80414 159.136 8.0534 158.635C8.93971 156.849 9.77039 155.047 10.5588 153.216C12.1042 153.778 13.4426 154.54 14.8511 155.385C22.4991 159.83 32.7143 162.186 41.4911 160.237C43.4883 159.639 44.9471 158.83 46.0662 157.005C46.4451 156.064 46.4893 155.347 46.4832 154.335C46.4851 154.02 46.487 153.704 46.489 153.379C46.3504 152.107 46.038 151.315 45.0587 150.475C41.6264 148.486 37.6519 147.961 33.812 147.188C16.0799 143.608 16.0799 143.608 10.1856 137.54C9.96765 137.329 9.7497 137.119 9.52514 136.902C5.88155 133.111 5.16457 127.535 5.17156 122.515C5.28878 117.226 7.39005 112.458 10.9787 108.567C24.7453 95.7814 49.3673 97.4696 64.6786 106.561Z" fill="white"/>
<path d="M315.449 101.299C315.751 101.299 316.054 101.3 316.365 101.3C317.319 101.302 318.274 101.307 319.228 101.312C319.88 101.314 320.531 101.316 321.183 101.317C322.771 101.321 324.359 101.328 325.946 101.335C325.981 107.283 326.008 113.231 326.024 119.178C326.031 121.941 326.042 124.703 326.059 127.466C326.074 129.878 326.084 132.289 326.087 134.701C326.089 135.974 326.093 137.248 326.104 138.521C326.196 150.413 324.548 160.962 316.064 169.863C308.553 177.002 298.277 178.098 288.408 177.966C279.763 177.703 271.618 174.699 265.573 168.355C258.624 160.426 257.13 150.751 256.947 140.568C256.929 139.809 256.901 139.05 256.863 138.292C256.518 131.312 256.518 131.312 258.925 128.369C259.747 127.481 260.607 126.651 261.498 125.834C262.557 124.797 263.418 123.616 264.292 122.423C264.494 122.153 264.695 121.883 264.903 121.605C268.602 116.498 272.266 111.377 275.457 105.933C276.607 103.984 276.607 103.984 277.425 103.575C277.426 103.783 277.427 103.992 277.428 104.207C277.45 109.308 277.478 114.409 277.513 119.509C277.53 121.976 277.544 124.443 277.554 126.909C277.564 129.293 277.579 131.677 277.598 134.061C277.604 134.967 277.609 135.873 277.611 136.779C277.63 143.533 277.774 149.357 281.577 155.175C285.028 158.475 288.7 158.994 293.263 158.916C296.435 158.785 299.096 157.73 301.394 155.516C305.673 150.318 305.578 143.825 305.56 137.468C305.557 136.142 305.56 134.816 305.566 133.49C305.581 129.724 305.582 125.958 305.581 122.192C305.581 119.88 305.588 117.569 305.599 115.257C305.603 113.952 305.599 112.647 305.594 111.343C305.597 110.544 305.601 109.744 305.605 108.945C305.602 108.584 305.598 108.223 305.594 107.851C305.617 105.685 305.863 104.489 307.284 102.828C309.538 101.013 312.687 101.28 315.449 101.299Z" fill="white"/>
<path d="M205.763 66.6239C205.885 75.9093 205.977 85.1945 206.034 94.4806C206.061 98.7924 206.097 103.104 206.157 107.415C206.209 111.174 206.243 114.932 206.255 118.69C206.261 120.68 206.277 122.67 206.315 124.659C206.351 126.534 206.362 128.406 206.354 130.281C206.355 130.968 206.366 131.654 206.386 132.341C206.526 137.389 206.526 137.389 205.251 138.887C203.825 140.102 202.229 140.865 200.538 141.645C199.924 142.01 199.314 142.382 198.712 142.766C189.771 148.063 189.771 148.063 185.235 149.11C185.2 139.458 185.174 129.806 185.157 120.154C185.15 115.672 185.139 111.191 185.122 106.71C185.107 102.804 185.098 98.8986 185.094 94.9931C185.092 92.9247 185.088 90.8563 185.077 88.7879C185.067 86.8416 185.064 84.8955 185.066 82.9492C185.066 82.2343 185.063 81.5195 185.057 80.8047C185.049 79.8294 185.051 78.8546 185.055 77.8794C185.051 77.5958 185.047 77.3122 185.042 77.0201C185.057 75.6784 185.195 74.899 185.911 73.7507C187.023 72.6868 188.236 72.2581 189.667 71.7793C189.965 71.6746 190.263 71.5699 190.57 71.4621C191.651 71.086 192.735 70.7209 193.819 70.3563C194.291 70.1959 194.764 70.0352 195.236 69.8744C196.761 69.3553 198.287 68.84 199.815 68.3268C200.067 68.242 200.319 68.1572 200.579 68.0698C201.3 67.828 202.022 67.5882 202.744 67.3485C203.164 67.2088 203.584 67.069 204.016 66.9251C205.017 66.6239 205.017 66.6239 205.763 66.6239Z" fill="white"/>
<path d="M346.546 110.387C359.547 97.5913 384.432 95.2442 398.706 107.447C399.474 108.132 400.223 108.837 400.968 109.547C401.31 109.86 401.652 110.172 402.005 110.494C408.179 116.344 412.119 125.5 412.615 133.997C412.652 135.443 412.661 136.887 412.655 138.333C412.654 138.716 412.654 138.716 412.653 139.107C412.605 148.709 410.332 158.099 403.954 165.532C403.574 165.986 403.574 165.986 403.187 166.449C397.601 172.92 389.806 177.21 381.186 177.85C372.964 178.215 365.286 177.683 358.885 171.971C358.349 171.45 357.82 170.921 357.299 170.385L355.806 168.892C355.683 179.484 355.56 190.077 355.433 200.99C352.916 201.891 350.398 202.792 347.804 203.72C346.623 204.143 346.623 204.143 345.418 204.574C344.783 204.801 344.149 205.028 343.514 205.255C343.193 205.37 342.872 205.485 342.541 205.604C341.614 205.935 340.685 206.263 339.757 206.589C339.446 206.698 339.135 206.808 338.815 206.921C338.517 207.024 338.22 207.127 337.913 207.232C337.648 207.324 337.383 207.416 337.11 207.511C336.398 207.709 336.398 207.709 335.278 207.709C335.252 198.336 335.232 188.962 335.22 179.588C335.215 175.235 335.206 170.882 335.193 166.529C335.182 162.733 335.175 158.936 335.173 155.14C335.171 153.132 335.168 151.124 335.16 149.116C335.152 147.221 335.149 145.326 335.151 143.431C335.151 142.74 335.149 142.05 335.144 141.359C335.074 129.63 338.19 118.941 346.546 110.387ZM384.057 121.236C376.627 116.457 367.251 116.991 360.959 123.451C356.308 128.96 355.001 134.998 355.433 142.019C356.109 147.706 358.419 152.421 362.892 156.058C367.183 159.213 372.284 159.723 377.454 159.188C382.02 158.111 385.367 155.982 388.219 152.317C392.131 146.935 392.702 140.113 391.844 133.681C390.802 128.681 388.211 124.259 384.057 121.236Z" fill="white"/>
<path d="M172.172 101.335C172.172 118.456 172.172 135.576 172.172 153.216C167.434 154.569 163.182 154.805 158.292 154.755C157.645 154.751 156.999 154.748 156.352 154.745C154.782 154.737 153.213 154.724 151.644 154.709C151.609 148.323 151.582 141.939 151.566 135.553C151.558 132.589 151.548 129.624 151.531 126.659C151.516 124.075 151.506 121.491 151.503 118.906C151.501 117.538 151.497 116.17 151.486 114.802C151.474 113.274 151.473 111.746 151.474 110.218C151.469 109.765 151.463 109.312 151.458 108.846C151.469 106.481 151.509 104.979 153.136 103.201C157.905 99.2804 167.794 101.335 172.172 101.335Z" fill="white"/>
<path d="M240.101 66.6239C240.214 71.4778 240.3 76.3315 240.353 81.1865C240.378 83.4415 240.412 85.6957 240.467 87.9502C240.52 90.1308 240.549 92.3105 240.562 94.4917C240.571 95.3189 240.588 96.1461 240.614 96.973C240.779 102.338 240.168 105.673 236.499 109.718C236.29 109.937 236.081 110.157 235.866 110.384C235.074 111.226 234.347 112.112 233.619 113.009C230.77 116.492 227.666 119.77 224.495 122.96C224.2 123.257 224.2 123.257 223.899 123.561C220.357 127.089 220.357 127.089 219.2 127.089C219.174 120.357 219.154 113.625 219.142 106.892C219.136 103.767 219.128 100.641 219.115 97.5149C219.104 94.7904 219.097 92.066 219.095 89.3415C219.093 87.8989 219.09 86.4564 219.081 85.0138C219.074 83.6557 219.072 82.2977 219.073 80.9396C219.073 80.2041 219.067 79.4685 219.061 78.733C219.062 78.2939 219.064 77.8548 219.065 77.4024C219.064 77.0216 219.063 76.6407 219.062 76.2483C219.223 75.0318 219.605 74.331 220.32 73.3422C221.036 72.8787 221.036 72.8787 221.842 72.5597C222.14 72.4397 222.438 72.3197 222.745 72.1961C223.053 72.0817 223.361 71.9672 223.679 71.8493C223.97 71.7407 224.261 71.6321 224.561 71.5203C225.476 71.1898 226.394 70.8731 227.315 70.5604C227.647 70.4465 227.979 70.3327 228.322 70.2154C229.017 69.9775 229.713 69.7404 230.409 69.5041C231.476 69.1413 232.542 68.775 233.608 68.4085C234.286 68.1769 234.964 67.9456 235.643 67.7145C235.961 67.6048 236.28 67.4952 236.608 67.3823C236.903 67.2825 237.199 67.1827 237.503 67.0799C237.762 66.9916 238.021 66.9032 238.289 66.8122C238.982 66.6239 238.982 66.6239 240.101 66.6239Z" fill="white"/>
<path d="M169.264 69.3169C171.608 70.8659 173.543 73.4002 174.289 76.1256C174.824 80.2729 174.353 83.8824 172.102 87.4555C170.098 90.0028 167.11 91.4727 163.96 92.0043C160.158 92.3588 157.109 92.0649 153.997 89.7693C152.048 88.1246 150.635 86.5792 149.777 84.1663C149.623 83.7506 149.469 83.3349 149.311 82.9066C148.552 79.2394 149.123 76.1615 150.967 72.9224C155.196 66.6225 162.87 65.8035 169.264 69.3169Z" fill="white"/>
<path d="M239.728 148.737C239.728 157.851 239.728 166.966 239.728 176.357C232.954 176.357 226.179 176.357 219.2 176.357C218.281 165.068 218.281 165.068 219.891 162.613C221.692 160.939 223.828 159.915 226.055 158.913C227.427 158.254 228.552 157.399 229.721 156.435C230.094 156.14 230.467 155.846 230.852 155.543C231.194 155.267 231.537 154.992 231.89 154.709C232.381 154.319 232.381 154.319 232.881 153.921C234.149 152.912 235.41 151.895 236.669 150.874C237.179 150.463 237.179 150.463 237.699 150.043C238.007 149.793 238.315 149.543 238.633 149.285C239.355 148.737 239.355 148.737 239.728 148.737Z" fill="white"/>
<path d="M34.1043 4.08288C35.0441 4.88039 35.8732 5.71404 36.6095 6.70335C36.6095 6.85677 36.6095 7.01018 36.6095 7.16825C37.1784 6.60529 37.7399 6.04091 38.2793 5.44941C41.6038 1.88293 46.2249 0.331959 51.023 0.156716C56.2287 0.0274541 61.2061 1.27012 65.096 4.92187C69.8315 10.0728 70.2292 16.8108 70.176 23.436C70.1701 24.2972 70.1697 25.1583 70.1686 26.0195C70.1657 27.6428 70.1581 29.2661 70.1487 30.8893C70.1383 32.7405 70.1332 34.5917 70.1286 36.4429C70.1189 40.2441 70.1019 44.0452 70.0818 47.8464C65.9396 47.8464 61.7974 47.8464 57.5296 47.8464C57.521 45.7981 57.5123 43.7497 57.5033 41.6393C57.4954 40.1729 57.487 38.7065 57.478 37.2401C57.4665 35.3428 57.4559 33.4455 57.4491 31.5481C57.4438 30.0454 57.436 28.5426 57.4253 27.0399C57.4198 26.2452 57.4154 25.4506 57.414 24.6559C57.4117 23.7657 57.4052 22.8757 57.3977 21.9856C57.398 21.7261 57.3984 21.4666 57.3987 21.1992C57.3697 18.7507 57.0181 15.8875 55.3223 13.9837C54.9158 13.6063 54.5015 13.2912 54.043 12.9794C53.906 12.8829 53.7691 12.7864 53.628 12.687C51.8521 11.6773 49.5073 11.7953 47.5344 12.0496C46.643 12.3117 45.9505 12.6554 45.21 13.2119C44.8617 13.4716 44.8617 13.4716 44.5063 13.7367C43.7659 14.3645 43.3708 15.0536 42.9436 15.9286C42.8106 16.1932 42.6776 16.4577 42.5405 16.7303C41.7121 18.6661 41.6533 20.7014 41.6492 22.7772C41.6468 23.0496 41.6445 23.322 41.6421 23.6027C41.635 24.4956 41.631 25.3886 41.627 26.2815C41.6227 26.9036 41.6182 27.5256 41.6134 28.1477C41.6026 29.613 41.594 31.0782 41.5863 32.5435C41.5765 34.3772 41.5636 36.2109 41.5508 38.0446C41.5279 41.3118 41.5096 44.5791 41.4908 47.8464C37.2719 47.8464 33.053 47.8464 28.7063 47.8464C28.6973 44.7236 28.6973 44.7236 28.6881 41.5376C28.6815 40.0473 28.6743 38.5571 28.6663 37.0668C28.6561 35.1385 28.6471 33.2102 28.6433 31.2818C28.6403 29.7546 28.634 28.2273 28.6239 26.7001C28.6186 25.8924 28.615 25.0848 28.6152 24.2771C28.6154 23.3725 28.6083 22.468 28.6007 21.5634C28.6019 21.2995 28.6031 21.0357 28.6043 20.7638C28.5709 18.1839 27.9064 15.6388 26.1494 13.6767C25.5634 13.207 24.9662 12.839 24.2898 12.5145C24.1232 12.43 23.9566 12.3455 23.785 12.2585C21.8686 11.6497 19.1521 11.6843 17.3455 12.5726C17.0193 12.7756 16.6983 12.9874 16.3866 13.2119C16.1709 13.3509 15.9551 13.4899 15.7329 13.6332C14.3275 15.0385 13.7735 16.6419 13.3648 18.5581C13.3046 18.8387 13.3046 18.8387 13.2432 19.1249C13.0849 20.3074 13.0909 21.4798 13.0846 22.6717C13.0823 22.9439 13.08 23.2162 13.0777 23.4967C13.0703 24.3947 13.0646 25.2927 13.0588 26.1907C13.054 26.8141 13.0492 27.4375 13.0442 28.0609C13.0326 29.5328 13.0221 31.0047 13.0121 32.4766C12.9995 34.3174 12.9853 36.1583 12.9712 37.9992C12.946 41.2816 12.9231 44.564 12.8999 47.8464C8.68102 47.8464 4.46211 47.8464 0.115362 47.8464C0.0943063 43.9363 0.077208 40.0264 0.0671891 36.1163C0.0624117 34.3004 0.0559072 32.4846 0.0452199 30.6688C0.0359002 29.0846 0.0299407 27.5004 0.0278793 25.9161C0.0266759 25.0787 0.0238831 24.2413 0.0170543 23.4038C-0.0350015 16.7654 -0.0349997 16.7654 1.04515 13.9092C1.13224 13.6423 1.13224 13.6423 1.2211 13.3699C1.92215 11.2567 2.96251 9.41038 4.2994 7.63314C4.42015 7.46954 4.54091 7.30594 4.66532 7.13738C7.71788 3.33897 12.399 1.18007 17.0985 0.292915C23.1022 -0.350336 29.1947 0.269105 34.1043 4.08288Z" fill="white"/>
<path d="M203.564 0.107828C203.975 0.108137 203.975 0.108137 204.393 0.108452C207.101 0.145099 209.455 0.544943 211.874 1.82212C211.335 3.87167 210.547 5.82186 209.759 7.78509C209.533 8.35042 209.309 8.91682 209.086 9.48332C208.943 9.8428 208.799 10.2022 208.655 10.5616C208.555 10.8158 208.555 10.8158 208.453 11.0751C207.976 12.2556 207.976 12.2556 207.458 12.5147C207.3 12.4826 207.143 12.4505 206.981 12.4175C204.241 11.8768 201.443 12.0579 199.052 13.5189C197.127 14.8358 195.975 16.6176 195.482 18.8817C195.323 20.0751 195.329 21.2581 195.323 22.4607C195.32 22.7352 195.318 23.0098 195.316 23.2926C195.31 24.0422 195.304 24.7918 195.3 25.5414C195.295 26.3259 195.288 27.1105 195.282 27.8951C195.271 29.3793 195.26 30.8635 195.25 32.3478C195.237 34.2041 195.223 36.0604 195.209 37.9167C195.184 41.2266 195.161 44.5366 195.138 47.8465C190.919 47.8465 186.7 47.8465 182.353 47.8465C182.316 40.7139 182.316 40.7139 182.307 37.1604C182.301 35.2476 182.295 33.335 182.283 31.4223C182.274 29.9066 182.268 28.3909 182.266 26.8752C182.265 26.0747 182.262 25.2743 182.255 24.4739C182.204 17.8286 182.823 11.3663 187.63 6.30943C187.894 6.04425 187.894 6.04425 188.164 5.77371C188.324 5.61131 188.484 5.4489 188.648 5.28158C190.658 3.3651 193.027 2.15237 195.632 1.27006C195.795 1.21459 195.959 1.15912 196.127 1.10197C198.566 0.32777 201.016 0.104356 203.564 0.107828Z" fill="white"/>
<path d="M94.7711 0.53728C100.488 -0.747308 106.532 0.351123 111.69 2.98455C111.935 3.10852 112.179 3.2328 112.431 3.36052C116.329 5.48475 119.284 8.67351 121.453 12.5148C121.563 12.7084 121.672 12.9023 121.786 13.1017C123.628 16.5574 124.333 20.194 124.314 24.0793C124.313 24.3674 124.312 24.6555 124.31 24.9523C124.283 27.0185 124.135 28.8883 123.545 30.8781C123.497 31.0425 123.45 31.2068 123.401 31.3761C121.535 37.754 117.777 42.7467 111.937 46.0021C106.192 49.0828 98.7041 49.8924 92.4547 48.0187C86.1895 45.9553 80.9968 42.1421 77.9596 36.1789C75.0641 30.3164 74.2494 22.9517 76.358 16.6984C78.4403 10.6557 82.5234 5.56927 88.2789 2.67205C90.2188 1.74208 92.1541 1.11357 94.2565 0.660327C94.4263 0.619817 94.5961 0.579015 94.7711 0.53728ZM105.908 13.2844C103.597 11.8572 100.423 11.1046 97.735 11.6877C97.5797 11.7318 97.4287 11.7747 97.278 11.8176C95.1566 12.3092 93.4277 13.1902 91.819 14.675C89.3192 17.3133 88.2047 20.1455 88.1442 23.7531C88.1428 23.9874 88.1416 24.2151 88.1403 24.4426C88.1333 25.6025 88.1526 26.6718 88.4186 27.8049C88.5066 28.0595 88.592 28.3067 88.6774 28.5539C89.3542 30.663 90.2262 32.4602 91.6998 34.132C93.7303 35.8816 95.8958 37.0781 98.5934 37.2277C102.097 37.3447 104.93 36.7653 107.578 34.3371C110.323 31.5128 111.207 28.4095 111.288 24.5568C111.291 24.3254 111.294 24.1008 111.297 23.8761C111.31 23.2387 111.31 22.6061 111.288 21.9689C111.018 19.2979 109.729 16.5841 107.753 14.7795C107.59 14.6418 107.431 14.5078 107.273 14.3742C106.829 13.9895 106.385 13.6272 105.908 13.2844Z" fill="white"/>
<path d="M135.356 6.94166C144.418 -1.8005 159.373 -2.09682 169.036 5.82545C169.62 6.33421 170.179 6.85807 170.731 7.40065C170.907 7.57414 171.084 7.74826 171.266 7.92701C174.643 11.4558 176.354 15.9207 177.239 20.6506C177.285 20.8795 177.331 21.1082 177.377 21.344C178.234 27.6456 176.39 34.2314 172.651 39.3294C168.584 44.6383 163.209 47.424 156.711 48.6946C149.398 49.3925 142.594 48.0223 136.811 43.3381C132.145 39.441 129.201 33.8817 128.426 27.8567C128.358 26.7518 128.348 25.651 128.353 24.5442C128.354 24.2455 128.355 23.9467 128.357 23.6389C128.438 17.2896 130.942 11.5119 135.356 6.94166ZM158.948 13.2337C153.458 9.96887 146.823 11.5297 143.272 16.7268C141.365 19.9015 140.539 23.8176 141.4 27.4934C141.493 27.7748 141.584 28.0484 141.675 28.3215C141.764 28.6514 141.857 28.9804 141.951 29.3088C143.015 32.3637 144.986 34.7683 147.894 36.2249C148.071 36.3036 148.244 36.3799 148.416 36.4563C149.668 37.0176 150.883 37.1981 152.243 37.2483C155.458 37.2934 158.186 36.5595 160.574 34.3294C163.117 31.6881 164.277 28.8636 164.286 25.2444C164.284 24.8615 164.283 24.8609 164.281 24.4856C164.289 23.3139 164.303 22.1509 164.139 20.9885C163.466 17.7024 161.669 15.1583 158.948 13.2337Z" fill="white"/>
<path d="M218.179 5.52644C226.403 -1.50656 240.019 -1.85587 248.514 4.90241C248.854 5.19126 249.193 5.48148 249.53 5.77351C249.717 5.91304 249.904 6.0526 250.096 6.19636C250.821 6.81228 251.377 7.49196 251.956 8.24323C252.125 8.46125 252.125 8.46128 252.297 8.68366C255.785 13.2574 257.018 18.4041 256.998 24.0938C256.999 24.3506 256.999 24.6076 257 24.8721C257 25.2438 257 25.244 256.999 25.6231C256.999 25.8457 256.999 26.0686 256.999 26.2979C256.969 26.9263 256.969 26.9268 256.736 28.0889H222.799C224.157 31.8901 225.526 34.5428 229.192 36.3116C232.492 37.8035 237.076 38.0364 240.53 36.9444C242.943 35.9704 244.898 34.8433 246.741 32.9698C247.718 33.3412 248.315 34.069 248.993 34.8292C249.177 35.0319 249.177 35.0324 249.364 35.2393C249.731 35.644 250.096 36.0507 250.46 36.4571C250.752 36.7791 250.752 36.7791 251.05 37.1075C252.106 38.274 253.148 39.4529 254.18 40.6407C252.034 44.4448 247.4 46.5628 243.385 47.7735C243.23 47.8206 243.075 47.8685 242.915 47.9171C240.442 48.6278 238.005 48.8609 235.439 48.8487C235.154 48.8476 234.869 48.8469 234.575 48.8458C227.661 48.7571 221.481 46.3627 216.45 41.585C211.635 36.5077 209.848 30.0929 209.972 23.2344C210.179 16.2824 213.159 10.2918 218.179 5.52644ZM239.404 11.8028C235.623 9.60328 230.451 9.75846 226.984 12.5147C224.541 14.5866 223.387 16.5241 223.031 19.7208H244.185V17.8604C243.705 16.0305 242.431 14.2254 241.09 12.921C240.775 12.7156 240.774 12.7161 240.465 12.5147C240.115 12.2728 239.761 12.0359 239.404 11.8028Z" fill="white"/>
</svg>
