<svg width="827" height="159" viewBox="0 0 827 159" fill="none" xmlns="http://www.w3.org/2000/svg">
<path d="M701.129 0C701.168 0.353593 701.207 0.707185 701.247 1.07149C701.62 4.47276 701.993 7.87402 702.366 11.2753C702.595 13.3609 702.823 15.4465 703.052 17.5321C703.2 18.8837 703.349 20.2352 703.497 21.5868C703.608 22.599 703.719 23.6113 703.829 24.6235C704.191 27.9234 704.557 31.2227 704.932 34.521C705.037 35.4439 705.141 36.3667 705.246 37.2896C705.343 38.1453 705.442 39.0008 705.541 39.8564C705.6 40.376 705.658 40.8957 705.717 41.4154C705.794 42.0851 705.794 42.0851 705.872 42.7684C705.984 44.0704 706 45.3489 705.981 46.655C703.61 45.1237 701.362 43.4815 699.146 41.7329C698.565 41.2764 697.983 40.8201 697.401 40.3638C697.149 40.165 696.897 39.9662 696.637 39.7614C696.395 39.5729 696.153 39.3844 695.904 39.1902C695.644 38.9865 695.384 38.7828 695.116 38.573C694.376 38.0457 693.806 37.8557 692.918 37.6972C692.769 38.1842 692.769 38.1842 692.616 38.6811C692.181 39.9091 691.661 40.9719 691.031 42.1105C690.804 42.5216 690.577 42.9327 690.343 43.3563C690.097 43.7951 689.852 44.2337 689.606 44.6721C689.48 44.8961 689.355 45.12 689.226 45.3507C686.985 49.3586 684.63 53.2764 682.094 57.1057C681.907 57.3899 681.72 57.6741 681.527 57.967C676.516 65.5344 671.03 72.848 664.84 79.4928C664.086 80.3045 663.361 81.1366 662.64 81.9786C661.007 83.8523 659.252 85.6023 657.492 87.3551C656.925 87.9203 656.36 88.4875 655.795 89.0549C653.802 91.0492 651.776 92.9818 649.622 94.8029C649.228 95.1435 648.834 95.4841 648.44 95.8249C638.332 104.442 627.246 111.777 615.292 117.577C614.539 117.943 613.79 118.316 613.04 118.689C604.361 122.952 594.94 125.954 585.425 127.648C585.124 127.704 584.824 127.761 584.514 127.819C575.071 129.533 564.212 129.773 554.819 127.648C554.562 127.594 554.305 127.54 554.04 127.485C543.522 125.263 533.563 120.154 525.927 112.559C525.308 111.947 524.678 111.349 524.045 110.752C520.941 107.784 518.309 104.583 515.779 101.118C515.314 100.481 514.841 99.8489 514.368 99.2176C512.755 97.051 511.44 94.912 510.031 92.5635C509.907 104.141 509.784 115.719 509.657 127.648C502.883 127.648 496.109 127.648 489.129 127.648C489.096 114.747 489.069 101.845 489.053 88.9437C489.051 87.4211 489.049 85.8985 489.047 84.376C489.047 84.0729 489.046 83.7697 489.046 83.4574C489.039 78.5471 489.028 73.6367 489.014 68.7264C489 63.6892 488.992 58.6521 488.989 53.6149C488.987 50.5058 488.98 47.3968 488.968 44.2877C488.96 42.1568 488.958 40.0258 488.96 37.8948C488.961 36.6646 488.958 35.4346 488.951 34.2045C488.944 32.8713 488.945 31.5385 488.95 30.2053C488.945 29.8158 488.941 29.4262 488.936 29.0248C488.95 27.3651 488.96 26.4039 489.84 24.9649C490.624 24.2591 491.172 23.9079 492.167 23.5809C492.467 23.4788 492.767 23.3768 493.077 23.2716C493.398 23.1693 493.719 23.067 494.05 22.9615C494.383 22.85 494.716 22.7384 495.059 22.6234C496.121 22.2692 497.185 21.9234 498.25 21.5779C499.313 21.2266 500.375 20.8735 501.437 20.5204C502.097 20.3017 502.758 20.0844 503.419 19.8686C504.62 19.4759 505.797 19.0903 506.959 18.5901C507.791 18.2887 507.791 18.2887 509.657 18.2887C509.657 39.7202 509.657 61.1516 509.657 83.2325C509.904 83.2325 510.15 83.2325 510.404 83.2325C510.529 82.9409 510.529 82.9409 510.656 82.6435C511.336 81.4003 512.206 80.3245 513.086 79.2201C513.364 78.8692 513.364 78.8692 513.648 78.5111C514.801 77.0616 515.985 75.649 517.22 74.2674C519.652 71.4964 521.916 68.5727 524.214 65.6902C524.961 64.7554 525.709 63.8208 526.457 62.8865C526.942 62.2802 527.425 61.6727 527.907 61.0641C529.368 59.2217 530.86 57.4086 532.378 55.6127C532.556 55.4021 532.734 55.1914 532.917 54.9744C534.899 52.6394 534.899 52.6394 536.02 52.537C536.436 52.5387 536.852 52.5404 537.281 52.5421C537.987 52.5421 537.987 52.5421 538.707 52.5422C539.223 52.546 539.739 52.5499 540.254 52.5539C540.78 52.5553 541.306 52.5564 541.833 52.5571C543.218 52.56 544.604 52.5673 545.989 52.5756C547.403 52.5832 548.816 52.5866 550.23 52.5904C553.004 52.5984 555.778 52.6111 558.552 52.6268C557.759 53.8379 556.981 55.0216 556.025 56.1099C555.749 56.4269 555.749 56.4269 555.468 56.7503C555.277 56.9677 555.086 57.185 554.889 57.4089C553.402 59.1223 551.955 60.8494 550.578 62.6533C549.649 63.8666 548.689 65.0553 547.732 66.2471C547.257 66.8389 546.784 67.4317 546.312 68.0259C544.715 70.0348 543.088 72.0171 541.453 73.9948C539.482 76.3807 537.539 78.7839 535.644 81.2307C534.966 82.1066 534.272 82.9676 533.568 83.8229C533.392 84.041 533.216 84.2591 533.034 84.4838C532.699 84.8978 532.361 85.3085 532.017 85.715C531.337 86.5668 530.938 87.1374 530.903 88.242C531.474 89.6073 532.28 90.712 533.171 91.887C533.356 92.1341 533.541 92.3811 533.731 92.6357C535.3 94.7091 536.974 96.6553 538.77 98.5353C538.997 98.786 539.224 99.0366 539.458 99.2949C544.018 104.154 550.334 107.725 556.522 110.059C556.79 110.161 557.058 110.264 557.335 110.369C562.148 112.088 566.907 112.55 571.965 112.508C572.248 112.508 572.531 112.507 572.822 112.506C577.883 112.481 582.718 111.957 587.664 110.852C588.068 110.768 588.068 110.768 588.479 110.683C604.224 107.408 619.367 98.9514 631.707 88.8311C631.903 88.6703 632.099 88.5094 632.301 88.3437C636.751 84.6786 640.934 80.7588 645.027 76.7008C645.355 76.3775 645.683 76.0543 646.021 75.7212C648.256 73.4896 650.262 71.1394 652.235 68.6761C652.597 68.2476 652.962 67.821 653.33 67.3975C655.769 64.5848 657.951 61.6557 660.073 58.5986C660.404 58.1353 660.404 58.1353 660.742 57.6626C666.951 48.9618 672.816 39.3921 676.869 29.4859C676.632 29.4723 676.394 29.4586 676.15 29.4445C673.24 29.2331 670.487 28.6551 667.654 27.9697C667.21 27.8645 666.766 27.7594 666.308 27.6511C665.224 27.3943 664.141 27.135 663.059 26.8733C663.059 26.5038 663.059 26.1342 663.059 25.7535C663.545 25.2699 663.545 25.2699 664.24 24.7796C664.5 24.5932 664.761 24.4068 665.03 24.2148C665.319 24.0143 665.607 23.8139 665.905 23.6074C666.205 23.3952 666.504 23.183 666.813 22.9644C669.48 21.086 672.176 19.2508 674.876 17.4208C677.251 15.8109 679.607 14.1775 681.954 12.5269C684.162 10.9749 686.381 9.44904 688.635 7.96488C690.96 6.41459 693.24 4.79378 695.528 3.18949C695.887 2.939 696.245 2.68851 696.614 2.43043C697.096 2.09245 697.096 2.09245 697.588 1.74765C700.173 0 700.173 0 701.129 0Z" fill="#FC6203"/>
<path d="M54.7613 57.3768C56.2704 58.6574 57.6017 59.996 58.7839 61.5845C58.7839 61.8308 58.7839 62.0772 58.7839 62.331C59.6975 61.427 60.599 60.5208 61.4651 59.571C66.8032 53.8443 74.2233 51.3539 81.9277 51.0726C90.2866 50.865 98.2787 52.8604 104.525 58.724C112.129 66.9948 112.767 77.8141 112.682 88.4522C112.672 89.8349 112.672 91.2177 112.67 92.6005C112.665 95.207 112.653 97.8135 112.638 100.42C112.621 103.392 112.613 106.365 112.606 109.337C112.59 115.441 112.563 121.544 112.53 127.648C105.879 127.648 99.2281 127.648 92.3755 127.648C92.3615 124.359 92.3476 121.07 92.3332 117.681C92.3204 115.327 92.307 112.972 92.2926 110.617C92.274 107.571 92.257 104.524 92.2462 101.478C92.2375 99.0648 92.225 96.6519 92.208 94.2389C92.1991 92.9629 92.1921 91.687 92.1897 90.411C92.1861 88.9816 92.1756 87.5525 92.1636 86.1232C92.1641 85.7065 92.1647 85.2899 92.1652 84.8606C92.1187 80.9289 91.554 76.3315 88.8311 73.2745C88.1784 72.6685 87.5131 72.1627 86.7769 71.662C86.557 71.5071 86.3371 71.3521 86.1106 71.1925C83.259 69.5711 79.494 69.7607 76.3262 70.169C74.8947 70.5898 73.7828 71.1418 72.5938 72.0352C72.0344 72.4524 72.0344 72.4524 71.4638 72.8779C70.2749 73.886 69.6406 74.9925 68.9547 76.3975C68.741 76.8223 68.5274 77.2471 68.3073 77.6848C66.9771 80.7931 66.8828 84.0611 66.8762 87.3944C66.8724 87.8318 66.8687 88.2692 66.8648 88.7198C66.8533 90.1536 66.8469 91.5874 66.8406 93.0212C66.8336 94.0201 66.8264 95.0189 66.8187 96.0177C66.8013 98.3705 66.7876 100.723 66.7752 103.076C66.7594 106.02 66.7388 108.965 66.7181 111.909C66.6814 117.155 66.652 122.402 66.6219 127.648C59.8476 127.648 53.0733 127.648 46.0937 127.648C46.0793 122.634 46.0793 122.634 46.0646 117.518C46.054 115.125 46.0425 112.732 46.0296 110.339C46.0131 107.243 45.9987 104.147 45.9926 101.05C45.9877 98.5979 45.9776 96.1456 45.9614 93.6933C45.953 92.3964 45.9471 91.0996 45.9475 89.8027C45.9478 88.3501 45.9364 86.8978 45.9242 85.4452C45.9261 85.0216 45.928 84.5979 45.9299 84.1615C45.8764 80.0189 44.8093 75.9322 41.9881 72.7817C41.0472 72.0275 40.0883 71.4366 39.0022 70.9155C38.7347 70.7798 38.4672 70.6441 38.1915 70.5043C35.1144 69.5268 30.7525 69.5825 27.8516 71.0088C27.3279 71.3346 26.8125 71.6747 26.312 72.0352C25.9656 72.2585 25.6192 72.4817 25.2623 72.7117C23.0057 74.9683 22.1161 77.5428 21.4599 80.6197C21.3632 81.0702 21.3632 81.0702 21.2646 81.5298C21.0105 83.4285 21.02 85.3111 21.01 87.2249C21.0063 87.662 21.0026 88.0992 20.9988 88.5497C20.9871 89.9916 20.9778 91.4335 20.9686 92.8754C20.9609 93.8764 20.9531 94.8774 20.9451 95.8783C20.9265 98.2417 20.9097 100.605 20.8936 102.969C20.8733 105.924 20.8506 108.88 20.8279 111.836C20.7874 117.107 20.7506 122.377 20.7134 127.648C13.9391 127.648 7.16482 127.648 0.185238 127.648C0.151428 121.37 0.123973 115.091 0.107886 108.813C0.100215 105.897 0.0897703 102.982 0.0726096 100.066C0.057645 97.5221 0.0480758 94.9783 0.0447658 92.4345C0.0428336 91.0898 0.0383492 89.7452 0.0273841 88.4005C-0.0562019 77.7411 -0.056199 77.7411 1.6782 73.1549C1.81805 72.7263 1.81805 72.7263 1.96072 72.2891C3.08639 68.8958 4.75692 65.9312 6.90355 63.0775C7.09745 62.8148 7.29134 62.5521 7.49111 62.2814C12.3926 56.1823 19.909 52.7158 27.4551 51.2912C37.0952 50.2584 46.878 51.253 54.7613 57.3768Z" fill="#014293"/>
<path d="M478.679 57.8522C478.128 59.6507 477.396 61.285 476.566 62.9653C476.435 63.2329 476.305 63.5004 476.17 63.7761C475.756 64.6247 475.339 65.4725 474.923 66.3201C474.505 67.1718 474.088 68.0237 473.671 68.8761C473.413 69.4048 473.154 69.9332 472.894 70.4612C472.398 71.4751 471.944 72.4558 471.587 73.5283C470.308 73.0418 469.092 72.474 467.869 71.8627C462.614 69.2721 457.183 68.2371 451.339 68.2096C450.935 68.2019 450.531 68.1942 450.116 68.1863C447.072 68.1716 444.02 68.3911 441.541 70.3324C440.187 71.72 439.91 72.2827 439.722 74.2281C439.77 75.8518 440.283 76.7663 441.355 78.0072C442.944 79.2107 444.318 79.7941 446.253 80.2466C446.509 80.3072 446.765 80.3678 447.028 80.4303C449.101 80.912 451.187 81.3271 453.275 81.7396C454.225 81.928 455.175 82.1167 456.125 82.306C456.705 82.4213 457.286 82.5356 457.866 82.6486C464.822 84.0239 473.104 86.7083 477.559 92.5635C481.064 98.4862 481.972 104.709 480.311 111.435C478.697 117.338 475.15 121.59 469.944 124.674C458.469 131.124 443.133 130.254 430.839 126.944C426.427 125.671 421.493 123.763 417.84 120.93C417.532 120.304 417.532 120.304 417.467 119.437C417.809 118.538 418.169 117.73 418.603 116.878C418.724 116.631 418.845 116.385 418.97 116.13C419.359 115.341 419.754 114.555 420.15 113.768C420.537 112.99 420.922 112.21 421.307 111.431C421.555 110.929 421.804 110.428 422.053 109.927C422.94 108.14 423.77 106.339 424.559 104.507C426.104 105.069 427.443 105.832 428.851 106.677C436.499 111.121 446.714 113.478 455.491 111.529C457.488 110.931 458.947 110.122 460.066 108.296C460.445 107.356 460.489 106.639 460.483 105.627C460.485 105.311 460.487 104.996 460.489 104.67C460.35 103.399 460.038 102.606 459.059 101.766C455.626 99.778 451.652 99.2527 447.812 98.4799C430.08 94.8997 430.08 94.8997 424.186 88.8311C423.968 88.6209 423.75 88.4106 423.525 88.194C419.881 84.4028 419.165 78.8266 419.172 73.8061C419.289 68.5176 421.39 63.7491 424.979 59.8584C438.745 47.073 463.367 48.7611 478.679 57.8522Z" fill="#FC6203"/>
<path d="M729.449 52.5903C729.751 52.5908 730.054 52.5914 730.365 52.5919C731.319 52.594 732.274 52.5987 733.228 52.6034C733.88 52.6053 734.531 52.607 735.183 52.6085C736.771 52.6126 738.359 52.619 739.946 52.6268C739.981 58.5744 740.008 64.5221 740.024 70.4698C740.031 73.2323 740.042 75.9948 740.059 78.7573C740.074 81.169 740.084 83.5807 740.087 85.9925C740.089 87.266 740.093 88.5393 740.104 89.8127C740.196 101.705 738.548 112.253 730.064 121.154C722.553 128.293 712.277 129.39 702.408 129.258C693.763 128.995 685.618 125.991 679.573 119.647C672.624 111.718 671.13 102.042 670.947 91.8597C670.929 91.1006 670.901 90.3417 670.863 89.5834C670.518 82.604 670.518 82.604 672.925 79.6605C673.747 78.773 674.607 77.9426 675.498 77.1254C676.557 76.0885 677.418 74.9072 678.292 73.7148C678.494 73.4448 678.695 73.1749 678.903 72.8967C682.602 67.79 686.266 62.6687 689.457 57.2246C690.607 55.2754 690.607 55.2754 691.425 54.8662C691.426 55.0749 691.427 55.2836 691.428 55.4986C691.45 60.5994 691.478 65.7 691.513 70.8007C691.53 73.2675 691.544 75.7342 691.554 78.201C691.564 80.5848 691.579 82.9685 691.598 85.3522C691.604 86.2584 691.609 87.1646 691.611 88.0707C691.63 94.8245 691.774 100.649 695.577 106.467C699.028 109.767 702.7 110.285 707.263 110.208C710.435 110.076 713.096 109.021 715.394 106.808C719.673 101.61 719.578 95.117 719.56 88.7593C719.557 87.4334 719.56 86.1077 719.566 84.7818C719.581 81.0158 719.582 77.2498 719.581 73.4838C719.581 71.1719 719.588 68.86 719.599 66.5481C719.603 65.2434 719.599 63.939 719.594 62.6343C719.597 61.8351 719.601 61.0359 719.605 60.2367C719.602 59.8755 719.598 59.5142 719.594 59.142C719.617 56.9761 719.863 55.7802 721.284 54.1197C723.538 52.3045 726.687 52.5717 729.449 52.5903Z" fill="#FC6203"/>
<path d="M326.863 50.9939C327.522 50.9944 327.522 50.9944 328.195 50.9949C332.543 51.0538 336.322 51.6958 340.207 53.7466C339.342 57.0375 338.075 60.169 336.811 63.3213C336.447 64.2291 336.089 65.1385 335.73 66.0482C335.5 66.6254 335.269 67.2025 335.038 67.7795C334.878 68.1877 334.878 68.1877 334.714 68.6041C333.947 70.4996 333.947 70.4996 333.115 70.9156C332.862 70.8641 332.61 70.8126 332.35 70.7596C327.95 69.8914 323.457 70.1821 319.619 72.5281C316.528 74.6427 314.677 77.5037 313.885 81.1392C313.631 83.0554 313.64 84.9549 313.63 86.886C313.626 87.3268 313.623 87.7676 313.619 88.2218C313.609 89.4254 313.601 90.629 313.593 91.8326C313.585 93.0924 313.575 94.3522 313.565 95.6119C313.546 97.9952 313.53 100.378 313.513 102.762C313.493 105.742 313.47 108.723 313.448 111.704C313.407 117.018 313.37 122.333 313.333 127.648C306.559 127.648 299.785 127.648 292.805 127.648C292.745 116.195 292.745 116.195 292.73 110.489C292.722 107.418 292.711 104.347 292.693 101.276C292.678 98.8418 292.668 96.4081 292.665 93.9743C292.663 92.689 292.658 91.4038 292.647 90.1185C292.566 79.4482 293.56 69.0717 301.277 60.9519C301.702 60.5261 301.702 60.5261 302.136 60.0916C302.393 59.8309 302.649 59.5701 302.913 59.3014C306.14 56.2241 309.943 54.2769 314.126 52.8601C314.389 52.7711 314.651 52.682 314.922 52.5902C318.838 51.3471 322.771 50.9884 326.863 50.9939Z" fill="#034392"/>
<path d="M619.763 17.9154C619.885 27.2008 619.977 36.4861 620.034 45.7721C620.061 50.0839 620.097 54.3952 620.157 58.7067C620.209 62.4652 620.243 66.2232 620.255 69.982C620.261 71.972 620.277 73.9611 620.316 75.9508C620.351 77.8251 620.362 79.698 620.354 81.5726C620.355 82.2592 620.366 82.9459 620.386 83.6322C620.526 88.6805 620.526 88.6805 619.251 90.179C617.825 91.3931 616.229 92.1568 614.538 92.9366C613.924 93.3017 613.314 93.6732 612.712 94.0578C603.771 99.3548 603.771 99.3548 599.235 100.401C599.2 90.7495 599.174 81.0975 599.157 71.4455C599.15 66.964 599.139 62.4825 599.122 58.0011C599.107 54.0956 599.098 50.1902 599.094 46.2846C599.092 44.2162 599.088 42.1478 599.077 40.0794C599.067 38.1331 599.064 36.187 599.066 34.2407C599.066 33.5259 599.063 32.811 599.057 32.0962C599.049 31.121 599.051 30.1461 599.055 29.1709C599.051 28.8873 599.047 28.6038 599.042 28.3116C599.057 26.97 599.195 26.1905 599.911 25.0423C601.023 23.9783 602.236 23.5496 603.667 23.0708C603.965 22.9661 604.263 22.8615 604.57 22.7536C605.651 22.3775 606.735 22.0125 607.819 21.6478C608.291 21.4874 608.764 21.3268 609.236 21.166C610.761 20.6469 612.287 20.1315 613.815 19.6183C614.067 19.5335 614.319 19.4487 614.579 19.3613C615.3 19.1195 616.022 18.8797 616.744 18.64C617.164 18.5003 617.584 18.3606 618.016 18.2166C619.017 17.9154 619.017 17.9154 619.763 17.9154Z" fill="#FC6202"/>
<path d="M152.175 51.6835C161.354 49.621 171.057 51.3848 179.34 55.6132C179.733 55.8124 180.126 56.0115 180.531 56.2167C186.79 59.6276 191.535 64.748 195.017 70.9159C195.193 71.2266 195.37 71.5372 195.552 71.8574C198.511 77.4062 199.641 83.2456 199.611 89.4843C199.609 89.9471 199.608 90.4099 199.605 90.8866C199.561 94.2043 199.324 97.2063 198.375 100.401C198.299 100.665 198.223 100.93 198.145 101.202C195.148 111.443 189.114 119.458 179.736 124.685C170.511 129.632 158.489 130.933 148.454 127.925C138.394 124.611 130.056 118.488 125.18 108.913C120.53 99.4997 119.222 87.6746 122.607 77.6337C125.951 67.9307 132.507 59.7634 141.749 55.1113C144.864 53.618 147.972 52.6086 151.348 51.8808L152.175 51.6835ZM170.056 72.1523C166.345 69.8606 161.25 68.6515 156.933 69.5878C156.683 69.6587 156.441 69.727 156.199 69.7958C152.793 70.5852 150.018 71.9999 147.435 74.3837C143.42 78.6202 141.63 83.168 141.533 88.9609C141.531 89.3371 141.528 89.7022 141.526 90.0673C141.515 91.9301 141.547 93.6473 141.974 95.4667C142.115 95.8755 142.253 96.2721 142.39 96.6689C143.476 100.055 144.875 102.942 147.241 105.627C150.502 108.436 153.979 110.357 158.311 110.598C163.936 110.786 168.486 109.855 172.737 105.956C177.146 101.421 178.566 96.4382 178.695 90.2519C178.701 89.88 178.706 89.5191 178.711 89.1581C178.731 88.1344 178.73 87.119 178.694 86.0956C178.262 81.8068 176.193 77.4494 173.019 74.5517C172.757 74.3306 172.503 74.1159 172.249 73.9013C171.536 73.2834 170.822 72.7028 170.056 72.1523Z" fill="#024293"/>
<path d="M217.341 61.9667C231.892 47.9293 255.907 47.4534 271.423 60.1747C272.36 60.9918 273.257 61.8335 274.144 62.705C274.427 62.9834 274.71 63.2618 275.002 63.5487C280.425 69.215 283.172 76.3845 284.594 83.9794C284.666 84.3469 284.74 84.7149 284.815 85.0936C286.191 95.2119 283.229 105.786 277.226 113.972C270.695 122.497 262.065 126.97 251.631 129.01C239.888 130.13 228.964 127.93 219.678 120.409C212.186 114.151 207.458 105.224 206.214 95.5497C206.105 93.7755 206.089 92.0085 206.097 90.2313C206.099 89.7516 206.101 89.2715 206.104 88.7772C206.234 78.5821 210.254 69.3051 217.341 61.9667ZM255.222 72.0702C246.407 66.8279 235.754 69.3343 230.051 77.6796C226.989 82.7771 225.663 89.0646 227.045 94.9667C227.196 95.4186 227.342 95.8571 227.488 96.2958C227.632 96.8256 227.78 97.3542 227.932 97.8817C229.64 102.787 232.804 106.648 237.474 108.987C237.759 109.114 238.036 109.237 238.313 109.359C240.323 110.26 242.272 110.549 244.457 110.63C249.62 110.702 254 109.524 257.834 105.943C261.917 101.702 263.781 97.1669 263.795 91.3554C263.791 90.7406 263.791 90.7401 263.786 90.1376C263.8 88.256 263.823 86.3889 263.559 84.5223C262.479 79.2455 259.591 75.1607 255.222 72.0702Z" fill="#024293"/>
<path d="M760.545 61.6783C773.547 48.8828 798.432 46.5357 812.706 58.7389C813.474 59.424 814.223 60.1284 814.968 60.8385C815.31 61.1511 815.652 61.4637 816.004 61.7857C822.179 67.6351 826.119 76.7917 826.615 85.2887C826.652 86.7347 826.661 88.1781 826.655 89.6246C826.654 90.0078 826.654 90.008 826.653 90.399C826.604 100 824.332 109.391 817.954 116.824C817.574 117.278 817.574 117.278 817.187 117.741C811.601 124.211 803.806 128.501 795.186 129.141C786.963 129.507 779.285 128.974 772.885 123.262C772.349 122.741 771.82 122.213 771.299 121.676L769.806 120.183C769.683 130.776 769.56 141.368 769.433 152.282C766.916 153.183 764.398 154.083 761.804 155.011C760.623 155.434 760.623 155.434 759.418 155.866C758.783 156.093 758.149 156.32 757.514 156.546C757.193 156.662 756.871 156.777 756.541 156.895C755.614 157.226 754.685 157.555 753.756 157.88C753.446 157.99 753.135 158.1 752.815 158.212C752.517 158.315 752.219 158.418 751.913 158.524C751.648 158.616 751.383 158.708 751.11 158.802C750.398 159 750.398 159.001 749.278 159.001C749.252 149.627 749.232 140.253 749.22 130.879C749.215 126.527 749.206 122.174 749.193 117.821C749.182 114.024 749.175 110.228 749.172 106.431C749.171 104.423 749.168 102.416 749.16 100.408C749.152 98.5127 749.149 96.6174 749.151 94.7223C749.151 94.0318 749.148 93.3414 749.144 92.651C749.074 80.922 752.19 70.2326 760.545 61.6783ZM798.057 72.5279C790.626 67.7485 781.251 68.2822 774.959 74.7428C770.308 80.2513 769.001 86.2895 769.433 93.3101C770.109 98.9971 772.419 103.712 776.892 107.349C781.183 110.504 786.284 111.014 791.454 110.479C796.02 109.402 799.367 107.273 802.219 103.609C806.131 98.2262 806.702 91.4043 805.844 84.9723C804.802 79.9721 802.211 75.5502 798.057 72.5279Z" fill="#FC6203"/>
<path d="M586.172 52.6267C586.172 69.7472 586.172 86.8677 586.172 104.507C581.434 105.861 577.182 106.096 572.292 106.047C571.645 106.043 570.999 106.04 570.352 106.036C568.782 106.028 567.213 106.015 565.644 106C565.609 99.615 565.582 93.23 565.566 86.8449C565.558 83.8802 565.548 80.9155 565.531 77.9507C565.516 75.3664 565.506 72.7821 565.503 70.1977C565.501 68.8295 565.497 67.4615 565.486 66.0933C565.474 64.5652 565.473 63.0374 565.474 61.5092C565.469 61.0566 565.463 60.6039 565.458 60.1376C565.469 57.7729 565.509 56.2703 567.136 54.4929C571.905 50.5719 581.794 52.6267 586.172 52.6267Z" fill="#FD6202"/>
<path d="M654.101 17.9154C654.214 22.7694 654.3 27.623 654.353 32.478C654.378 34.7331 654.412 36.9872 654.467 39.2418C654.521 41.4223 654.549 43.602 654.562 45.7832C654.571 46.6105 654.588 47.4377 654.614 48.2645C654.779 53.6295 654.168 56.9643 650.499 61.0092C650.29 61.229 650.081 61.4487 649.866 61.6751C649.074 62.5171 648.347 63.4037 647.619 64.3003C644.77 67.7839 641.666 71.0616 638.495 74.2513C638.2 74.549 638.2 74.549 637.899 74.8527C634.357 78.3803 634.357 78.3803 633.2 78.3803C633.174 71.6482 633.154 64.9161 633.142 58.1839C633.136 55.0581 633.128 51.9322 633.115 48.8064C633.104 46.082 633.097 43.3575 633.095 40.6331C633.093 39.1904 633.09 37.7479 633.081 36.3053C633.074 34.9472 633.072 33.5893 633.073 32.2312C633.073 31.4956 633.067 30.7601 633.061 30.0245C633.062 29.5854 633.064 29.1463 633.065 28.6939C633.064 28.3131 633.063 27.9322 633.062 27.5398C633.223 26.3234 633.605 25.6225 634.32 24.6338C635.036 24.1702 635.036 24.1702 635.842 23.8512C636.14 23.7312 636.438 23.6113 636.745 23.4877C637.053 23.3732 637.361 23.2587 637.679 23.1408C637.97 23.0322 638.261 22.9237 638.561 22.8118C639.476 22.4813 640.394 22.1647 641.315 21.8519C641.647 21.7381 641.979 21.6242 642.322 21.5069C643.017 21.269 643.713 21.032 644.409 20.7957C645.476 20.4329 646.542 20.0666 647.608 19.7C648.286 19.4684 648.964 19.2371 649.643 19.006C649.961 18.8964 650.28 18.7868 650.608 18.6738C650.903 18.574 651.199 18.4742 651.503 18.3714C651.762 18.2831 652.021 18.1948 652.289 18.1038C652.982 17.9154 652.982 17.9154 654.101 17.9154Z" fill="#FC6203"/>
<path d="M583.264 20.6083C585.608 22.1573 587.543 24.6917 588.289 27.417C588.824 31.5643 588.353 35.1739 586.102 38.7469C584.098 41.2942 581.11 42.7642 577.96 43.2958C574.158 43.6502 571.109 43.3564 567.997 41.0607C566.048 39.4161 564.635 37.8706 563.777 35.4577C563.623 35.042 563.469 34.6263 563.311 34.1981C562.552 30.5309 563.123 27.4529 564.967 24.2139C569.196 17.9139 576.87 17.095 583.264 20.6083Z" fill="#FB6204"/>
<path d="M653.728 100.028C653.728 109.143 653.728 118.257 653.728 127.648C646.954 127.648 640.179 127.648 633.2 127.648C632.281 116.359 632.281 116.359 633.891 113.904C635.692 112.23 637.828 111.206 640.055 110.205C641.427 109.546 642.552 108.691 643.721 107.726C644.094 107.432 644.467 107.137 644.852 106.834C645.194 106.559 645.537 106.284 645.89 106C646.381 105.61 646.381 105.61 646.881 105.213C648.149 104.203 649.41 103.186 650.669 102.166C651.179 101.754 651.179 101.754 651.699 101.335C652.007 101.084 652.315 100.834 652.633 100.577C653.355 100.028 653.355 100.028 653.728 100.028Z" fill="#FC6204"/>
<path d="M350.331 59.6955C363.536 48.4026 385.398 47.8408 399.039 58.6926C399.585 59.1565 400.13 59.623 400.672 60.092C400.971 60.3161 401.271 60.5407 401.58 60.7717C402.744 61.7607 403.637 62.8514 404.567 64.0578C404.837 64.4076 404.837 64.4079 405.113 64.7648C410.714 72.1089 412.694 80.3719 412.662 89.508C412.663 89.9205 412.664 90.333 412.666 90.758C412.665 91.355 412.665 91.3552 412.665 91.9641C412.664 92.3213 412.664 92.679 412.664 93.0471C412.615 94.0563 412.615 94.0569 412.242 95.923H357.749C359.929 102.027 362.126 106.286 368.012 109.126C373.312 111.522 380.674 111.896 386.22 110.143C390.094 108.579 393.232 106.769 396.192 103.761C397.761 104.357 398.719 105.526 399.808 106.746C400.104 107.072 400.104 107.072 400.405 107.404C400.993 108.054 401.579 108.707 402.165 109.36C402.634 109.877 402.634 109.877 403.112 110.404C404.807 112.277 406.48 114.17 408.136 116.077C404.691 122.186 397.25 125.587 390.803 127.531C390.554 127.607 390.305 127.683 390.049 127.761C386.078 128.902 382.165 129.278 378.044 129.258C377.586 129.256 377.129 129.254 376.658 129.252C365.555 129.11 355.633 125.265 347.554 117.594C339.822 109.441 336.953 99.1406 337.152 88.1281C337.484 76.9654 342.27 67.3472 350.331 59.6955ZM384.412 69.7727C378.341 66.2409 370.035 66.4897 364.467 70.9152C360.546 74.2421 358.692 77.3536 358.122 82.4865H392.087V79.5002C391.316 76.5617 389.271 73.6632 387.118 71.5686C386.612 71.2389 386.611 71.2385 386.115 70.9152C385.553 70.5268 384.984 70.147 384.412 69.7727Z" fill="#024292"/>
</svg>
